<svg xmlns="http://www.w3.org/2000/svg" viewBox="0 0 2500 2500"><defs><style>.cls-1{fill:#533677;}.cls-2{fill:#ffc622;}.cls-3{fill:#ec5f9b;}.cls-4{fill:#ffd46b;}</style></defs><g id="Bg"><circle class="cls-1" cx="1250" cy="1250" r="1226.28"/></g><g id="Layer_1" data-name="Layer 1"><path class="cls-2" d="M1844,819.86c16.79-357-241-524.3-569-516.25S672.76,492,656,849a703.88,703.88,0,0,0,1,81.42l0,1.1c-.05,65.92,16.95,129.21,42.65,191.56A611.12,611.12,0,0,0,728,1185.36C777.36,1285.19,842.13,1384,887.59,1489c83.09,191.85,59.93,234.06,59.93,234.06l524.16-12.86s-21.44-41.12,79.89-237.49,264.74-371.08,282.88-565.79A728.66,728.66,0,0,0,1844,819.86Z"/><path class="cls-3" d="M1475.89,1655.3s-105.59,57.07-266.11,61.3c-160.49,3.65-260.95-48.38-260.95-48.38s-85.71,71.54-65.87,98.62,30.7,22.22,30.7,22.22-27.85,276.37,40.55,348.22c63.49,66.67,217.14,59.88,238.9,58.57,20.22.29,163.32-.22,233.23-70.16,75.32-75.37,73.43-351,73.43-351s10.43,4.34,32.86-23.78S1475.89,1655.3,1475.89,1655.3Z"/><path d="M1030.46,1715.37c.36-96.21-2.09-279.79-12.12-443.09-16.16,2.15-31.7,1.66-45.9-1.72-25.69-6.47-59.56-24.63-75.93-77.46-42.6-138-29.47-271.48,29.3-297.54,13.77-6.22,49.08-13.83,83.42,43.86,24.49,41.44,39.83,150.57,49.43,274.65,20.62-10,41.63-24.49,61-42.38A274.69,274.69,0,0,1,1103,1092c-3.62-62.41,10.06-156.92,52-171.47a33.26,33.26,0,0,1,30.7,5c30,23.62,25.85,115.17,20.7,167.62-3.24,34.25-14.86,63.6-34.53,87.55,8.2,14.95,18,27.06,28.71,34.83,9.81,7.23,19.14,9.45,27.83,7.14l11.18,42.44c-21.67,5.74-43.63.83-64.72-14-13.16-9.56-25-22.77-35.16-38.59-25,21.4-51.61,37.72-77.79,48.12,12.72,197.53,12.52,415.32,12.36,454.74ZM949.13,936.43c-2.23-1.1-4.1-1.36-5.52-.82-21.24,9.5-48.6,104-5.14,244.54,8.27,26.84,22.61,42.53,44.26,47.68,9.75,2.32,20.87,2.46,32.71.56-9-124.73-22.9-230.94-44.05-266.54C963,947.55,954.83,939.24,949.13,936.43Zm213.15,37.35c-8.74,20.82-18.34,65.42-15.37,115.56a227.56,227.56,0,0,0,5.65,39.51,125.65,125.65,0,0,0,10.26-40C1168,1036.25,1166.19,995.11,1162.28,973.78Z"/><path d="M1325.13,1706.22c1.49-16,22.38-245.79,55.35-454.7-24.82-9.38-49.47-24.13-71.81-43.58-12.45,18-26.59,33-41.73,43.27-20.56,14.13-42.17,19.15-62.35,14.73l9.52-42.92c10.14,2.33,20.84-3.09,28.07-8,12.72-8.73,24.89-22.51,35.5-39.55q-26.29-35.65-26.4-86.56c-.09-42.22,3.12-143,35.63-167.06a32.48,32.48,0,0,1,29.43-5.18c40.09,13.11,48.2,108.63,38.47,172.29a299.42,299.42,0,0,1-24,79.75,214.45,214.45,0,0,0,56.88,38.42c21.37-126.38,47-238.4,75.28-280.68,39.24-58.75,72.38-54.23,89.65-44.08,54.71,28.64,54.56,159.27-.23,297.35-22.69,57.17-61.93,75.66-90.81,81.1a131.42,131.42,0,0,1-38.27,1.19c-25.7,165.16-45.67,351-54.46,448.25Zm207.1-785.1c-2.59-1.33-15.13,3.33-32.71,29.65-24.59,36.82-48.52,143.19-69.25,267.87a87.38,87.38,0,0,0,23.2-1.07c26.31-4.89,45.82-23.09,58.13-54C1566.46,1025.32,1551,930.73,1532.23,921.12Zm-224.79,49.17c-6.37,21-12.41,63.29-12.29,118.43a119,119,0,0,0,5.63,37,259.86,259.86,0,0,0,10.68-43.49C1318.77,1034.11,1314.14,991.39,1307.44,970.29Z"/><path class="cls-4" d="M1722,1115.06s257.34-502-143.32-699.44c-310.88-153.22-564,23.59-564,23.59S1255.14,464.34,1438,581.92C1773.2,797.38,1714.45,1035.3,1722,1115.06Z"/><path class="cls-4" d="M1722,1115.06s257.34-502-143.32-699.44c-310.88-153.22-564,23.59-564,23.59S1255.14,464.34,1438,581.92C1773.2,797.38,1714.45,1035.3,1722,1115.06Z"/><path d="M915.32,1808.62a21.95,21.95,0,0,1,17-40.39s100.09,34.13,270.45,34.19c170,.15,288.23-47.5,289.41-48a21.93,21.93,0,0,1,16.7,40.56c-5,2.09-127,51.49-306.19,51.34-178.45-.14-280.67-35.2-284.89-36.72Z"/><path d="M974.92,1934.24a22,22,0,0,1,16.1-40.73c1.15.39,117.31,34.89,237,21.91,120-13,184.07-42,184.07-42a21.93,21.93,0,0,1,18.54,39.75c-2.84,1.28-69.75,32-197.94,45.89-128.84,14-249.35-22-254.46-23.41A26.92,26.92,0,0,1,974.92,1934.24Z"/><path d="M972.15,1992.92a22,22,0,0,1,16.09-40.72c1.15.38,117.32,34.88,237.15,21.85s184-42.07,184-42.07a22,22,0,0,1,18.49,39.83c-2.83,1.28-69.7,31.94-197.82,45.85-129,14.07-249.46-21.91-254.57-23.37A25.47,25.47,0,0,1,972.15,1992.92Z"/><path d="M969.42,2051.53a22,22,0,0,1,16.09-40.73c1.14.38,117.31,34.88,237.11,21.93,120-13.06,184.08-42,184.08-42a22,22,0,0,1,18.48,39.83c-2.82,1.28-69.81,32-197.89,45.82-128.92,14-249.42-22-254.53-23.46A25.11,25.11,0,0,1,969.42,2051.53Z"/></g></svg>